<?xml version="1.0" encoding="UTF-8" standalone="no"?>
<!-- Created with Inkscape (http://www.inkscape.org/) -->

<svg
   xmlns:dc="http://purl.org/dc/elements/1.1/"
   xmlns:cc="http://creativecommons.org/ns#"
   xmlns:rdf="http://www.w3.org/1999/02/22-rdf-syntax-ns#"
   xmlns:svg="http://www.w3.org/2000/svg"
   xmlns="http://www.w3.org/2000/svg"
   xmlns:sodipodi="http://sodipodi.sourceforge.net/DTD/sodipodi-0.dtd"
   xmlns:inkscape="http://www.inkscape.org/namespaces/inkscape"
   width="64px"
   height="64px"
   id="svg3574"
   version="1.1"
   inkscape:version="0.91 r13725"
   sodipodi:docname="module_waveformperiod.svg">
  <defs
     id="defs3576">
    <clipPath
       id="clipPath9506"
       clipPathUnits="userSpaceOnUse">
      <path
         inkscape:connector-curvature="0"
         id="path9508"
         d="m 0,7 0,4443 5760,0 L 5760,7 0,7 Z" />
    </clipPath>
    <clipPath
       id="clipPath9518"
       clipPathUnits="userSpaceOnUse">
      <path
         inkscape:connector-curvature="0"
         id="path9520"
         d="m 720,451.602 4464,0 0,3557 -4464,0 0,-3557 z" />
    </clipPath>
    <clipPath
       id="clipPath9528"
       clipPathUnits="userSpaceOnUse">
      <path
         inkscape:connector-curvature="0"
         id="path9530"
         d="m 0,7 0,4443 5760,0 L 5760,7 0,7 Z" />
    </clipPath>
  </defs>
  <sodipodi:namedview
     id="base"
     pagecolor="#ffffff"
     bordercolor="#666666"
     borderopacity="1.0"
     inkscape:pageopacity="0.0"
     inkscape:pageshadow="2"
     inkscape:zoom="11.546875"
     inkscape:cx="32"
     inkscape:cy="32"
     inkscape:current-layer="layer1"
     showgrid="true"
     inkscape:document-units="px"
     inkscape:grid-bbox="true"
     inkscape:window-width="1559"
     inkscape:window-height="876"
     inkscape:window-x="41"
     inkscape:window-y="24"
     inkscape:window-maximized="1"
     showguides="true"
     inkscape:guide-bbox="true" />
  <metadata
     id="metadata3579">
    <rdf:RDF>
      <cc:Work
         rdf:about="">
        <dc:format>image/svg+xml</dc:format>
        <dc:type
           rdf:resource="http://purl.org/dc/dcmitype/StillImage" />
        <dc:title />
      </cc:Work>
    </rdf:RDF>
  </metadata>
  <g
     id="layer1"
     inkscape:label="Layer 1"
     inkscape:groupmode="layer">
    <path
       inkscape:connector-curvature="0"
       id="path9522"
       style="fill:none;stroke:#000000;stroke-width:3.13447785;stroke-linecap:square;stroke-linejoin:round;stroke-miterlimit:100;stroke-dasharray:none;stroke-opacity:1"
       d="m 1.9885133,57.221786 -0.1183823,0.718685 0.097251,0.208303 0.097251,-0.244937 0.097252,-0.913481 0.2920483,-4.38896 0.1945022,-2.930643 0.097251,-0.782985 0.097251,-0.400762 0.097252,-0.26552 0.097252,-0.565639 0.09725,-1.096676 0.097251,-1.680406 0.097252,-2.291956 0.1947289,-6.335108 0.194729,-6.52961 0.1945024,-5.048455 0.1947288,-3.294544 0.3893675,-5.451483 0.5840506,-9.1420436 0.097252,-0.8904087 0.097478,-0.4236096 0.09725,-0.07552 0.097478,0.2700415 0.09725,0.6135852 0.1947288,1.7310674 0.2921163,2.6420628 0.1947289,2.971577 0.1947287,4.10286 0.1947293,4.444143 0.2919121,5.119246 0.292116,4.846943 0.2919121,6.431227 0.292139,6.01011 0.097248,1.634721 0.194729,2.104014 0.097478,0.691386 0.097248,0.414332 0.097478,0.125994 0.19473,-0.06175 0.097248,0.02759 0.194729,0.125754 0.097478,0.04342 0.097248,-0.05248 0.097478,-0.295369 0.097248,-0.645703 0.292116,-3.086248 0.5840501,-7.150205 0.486575,-6.644278 0.194728,-1.536113 0.292117,-2.104241 0.681278,-5.455778 0.09748,-0.503894 0.09725,-0.32274 0.09748,-0.194509 0.09725,-0.06649 0.09748,0.107642 0.194729,0.293108 0.09725,0.0068 0.09748,-0.128237 0.389367,-0.915745 0.09724,0.0595 0.292116,0.874582 0.09724,0.299893 0.09748,0.196992 0.291911,0.359378 0.09748,0.258731 0.09726,0.391493 0.19473,1.227171 0.292139,2.154675 0.194728,0.869831 0.291888,1.254763 0.09748,0.560888 0.19473,1.657565 0.584028,5.609347 0.194729,1.030179 0.291912,1.245715 0.194728,0.869832 0.19473,0.870056 0.09748,0.306908 0.09726,0.148812 0.09748,-0.01612 0.09726,-0.178663 0.09748,-0.318213 0.194732,-0.947859 0.486592,-2.488718 0.09748,-0.67759 0.19473,-2.019427 0.389367,-4.677548 0.194728,-1.604867 0.291914,-1.932353 0.292116,-2.55747 0.194728,-1.78128 0.19473,-1.142359 0.09724,-0.327485 0.09748,-0.171663 0.09726,-0.09386 0.09748,0.0044 0.09724,0.103129 0.292119,0.47608 0.291909,0.581696 0.09748,0.260992 0.09726,0.373173 0.09748,0.478567 0.291914,1.930093 0.194726,1.236215 0.19473,0.874581 0.194729,0.773938 0.19473,1.066821 0.292117,1.820174 0.09726,0.457984 0.09748,0.295371 0.09726,0.196759 0.194731,0.123718 0.09748,0.05269 0.09726,0.09386 0.09748,0.192241 0.486597,1.444743 0.09748,0.167142 0.09726,0.05496 0.09748,-0.02294 0.09726,-0.08483 0.194729,-0.286321 0.09748,-0.09838 0.09726,-0.02739 0.09748,0.05021 0.291891,0.39398 0.09748,0.071 0.09726,-0.03688 0.09748,-0.125755 0.389343,-0.712192 0.19473,-0.132757 0.194729,-0.09614 0.194729,-0.244938 0.19473,-0.256471 0.09726,-0.109928 0.09748,-0.071 0.09726,0.007 0.194729,0.151071 0.09748,0.162619 0.291891,0.595265 0.194729,0.302157 0.292138,0.29085 0.09726,0.183203 0.09748,0.256245 0.194726,0.856261 0.389367,2.120071 0.29189,1.053249 0.19473,0.659496 0.292139,1.515532 0.389344,2.280423 0.194729,0.89064 0.194729,0.952379 0.389345,2.062853 0.291911,1.68968 0.4868,2.468134 0.09726,0.670806 0.389371,3.216747 0.292115,2.202619 0.19473,0.972967 0.09726,0.290844 0.09748,0.107644 0.09726,-0.36865 0.09748,-1.110468 0.194725,-2.976332 0.291915,-5.249971 0.09748,-0.885887 0.194731,-1.24097 0.09726,-0.966173 0.09748,-1.435699 0.194729,-4.592731 0.194731,-6.438014 0.194725,-6.598367 0.194731,-5.426374 0.09724,-2.094742 0.292117,-4.437132 0.194727,-2.007893 0.291914,-2.8711625 0.292116,-3.5256886 0.09726,-0.320703 0.09748,0.020846 0.09726,0.3204741 0.09748,0.8858879 0.194728,2.6307543 0.486573,8.4918158 0.19473,4.51267 0.292115,7.257862 0.778712,13.810315 0.194729,3.228283 0.291913,3.89456 0.09748,0.670807 0.09726,0.359374 0.09748,0.109927 0.09726,-0.242668 0.09748,-0.58396 0.389368,-3.361038 0.194727,-0.998065 0.194732,-1.415116 0.19473,-2.216188 0.584026,-7.715623 0.194729,-2.68096 0.389345,-4.448666 0.09726,-0.492134 0.58405,-2.08117 0.292117,-1.245488 0.09725,-0.366389 0.194732,-1.002817 0.09748,-0.22888 0.194729,-0.09159 0.09726,0.0044 0.09748,0.144294 0.291912,0.73933 0.09748,0.0023 0.194731,-0.40981 0.194727,-0.496661 0.09726,-0.09158 0.09748,0.100645 0.389343,0.872318 0.194733,0.686862 0.194727,0.840204 0.09726,0.535784 0.194727,1.563708 0.389345,3.253384 0.292117,1.943886 0.194729,1.61414 0.29191,2.932909 0.292119,3.065667 0.194728,1.394306 0.19473,0.881367 0.194729,0.506159 0.09726,0.04114 0.09748,-0.114448 0.09726,-0.176413 0.194729,-0.533298 0.09748,-0.371138 0.09726,-0.510452 0.194729,-1.607128 0.584027,-5.584241 0.194731,-2.415443 0.486798,-6.912054 0.09726,-1.000556 0.09748,-0.673067 0.291888,-1.318767 0.194729,-0.764665 0.19473,-0.835907 0.09748,-0.203547 0.09726,-0.100854 0.09748,-0.03188 0.09726,0.05496 0.09748,0.19676 0.09726,0.389229 0.19473,1.089888 0.194729,1.277607 0.389344,3.08376 0.681481,4.576902 0.194733,0.734809 0.486571,1.550135 0.194728,0.638692 0.09748,0.231361 0.09726,0.09839 0.09748,0 0.194729,-0.306909 0.58405,-1.167689 0.09726,-0.05495 0.09748,0.05748 0.194501,0.242677 0.09748,0.06401 0.09748,-0.03212 0.09726,-0.144039 0.292118,-0.581694 0.09726,-0.173934 0.19473,-0.162617 0.09748,-0.02962 0.09726,0.02509 0.09726,0.06401 0.09748,0.01384 0.194727,-0.02739 0.09748,-0.007 0.09726,0.03688 0.292138,0.17391 0.09726,0.03892 0.291892,0.0251 0.09748,0.04816 0.292137,0.338794 0.09726,0.222093 0.194729,0.716718 0.58405,2.339901 0.389343,0.982012 0.09748,0.302381 0.19473,0.931799 0.486597,2.484197 0.194728,0.707443 0.292116,0.856261 0.194729,0.73255 0.291913,1.245488 0.194727,0.753355 0.194729,0.659273 0.292139,1.552397 0.29189,1.888703 0.291913,1.442484 0.194728,0.982233 0.194957,1.366715 0.389366,3.239813 0.291911,2.539155 -0.04869,-0.503076"
       sodipodi:nodetypes="ccccccccccccccccccccccccccccccccccccccccccccccccccccccccccccccccccccccccccccccccccccccccccccccccccccccccccccccccccccccccccccccccccccccccccccccccccccccccccccccccccccccccccccccccccccccccccccccccccccccccccccccccccccccccccccccccccccccccccccccccccccccccccccccccccccccccccccccccccccccccccccccccccccccccccccccccc" />
  </g>
</svg>
