<?xml version="1.0" encoding="UTF-8" standalone="no"?>
<svg
   xmlns:dc="http://purl.org/dc/elements/1.1/"
   xmlns:cc="http://creativecommons.org/ns#"
   xmlns:rdf="http://www.w3.org/1999/02/22-rdf-syntax-ns#"
   xmlns:svg="http://www.w3.org/2000/svg"
   xmlns="http://www.w3.org/2000/svg"
   version="1.1"
   id="svg3574"
   height="64px"
   width="64px">
  <defs
     id="defs3576" />
  <metadata
     id="metadata3579">
    <rdf:RDF>
      <cc:Work
         rdf:about="">
        <dc:format>image/svg+xml</dc:format>
        <dc:type
           rdf:resource="http://purl.org/dc/dcmitype/StillImage" />
        <dc:title></dc:title>
      </cc:Work>
    </rdf:RDF>
  </metadata>
  <g
     id="layer1">
    <path
       id="path2985"
       d="m 32.71909,8.1789143 c -12.546681,0 -22.717938,10.1712577 -22.717938,22.7179417 0,12.54668 10.171257,22.717939 22.717938,22.717939 12.546683,0 22.717942,-10.171259 22.717942,-22.717939 0,-12.546684 -10.171259,-22.7179417 -22.717942,-22.7179417 z m 0.06924,4.5732017 c 10.013019,0 18.129352,8.116332 18.129352,18.129351 0,10.013018 -8.116333,18.131279 -18.129352,18.131279 -10.01302,0 -18.131276,-8.118261 -18.131276,-18.131279 0,-10.013019 8.118256,-18.129351 18.131276,-18.129351 z"
       style="fill:#000000;fill-opacity:1;stroke:#000000;stroke-width:0.04141261;stroke-miterlimit:4;stroke-opacity:1;stroke-dasharray:none" />
    <rect
       ry="2.4076087"
       transform="matrix(0.7487149,0.66289215,-0.66289215,0.7487149,0,0)"
       y="-2.9819596"
       x="63.181393"
       height="11.744348"
       width="11.833563"
       id="rect3013-8-6"
       style="fill:#000000;fill-opacity:1;stroke:#000000;stroke-width:0.06615168;stroke-miterlimit:4;stroke-opacity:1;stroke-dasharray:none" />
    <path
       transform="matrix(0.9350368,0,0,0.9350368,52.164895,0.88905441)"
       d="m -10.285189,32.308762 a 10.735167,10.735167 0 1 1 -21.470333,0 10.735167,10.735167 0 1 1 21.470333,0 z"
       id="path3197"
       style="fill:#000000;fill-opacity:1;stroke:#000000;stroke-width:0.5;stroke-miterlimit:4;stroke-opacity:1;stroke-dasharray:none" />
    <rect
       ry="2.4076087"
       transform="matrix(0.7487149,0.66289215,-0.66289215,0.7487149,0,0)"
       y="-5.7455602"
       x="14.694737"
       height="11.744348"
       width="11.833563"
       id="rect3013-8-6-4"
       style="fill:#000000;fill-opacity:1;stroke:#000000;stroke-width:0.06615168;stroke-miterlimit:4;stroke-opacity:1;stroke-dasharray:none" />
    <rect
       ry="2.4076087"
       transform="matrix(-0.66289215,0.7487149,-0.7487149,-0.66289215,0,0)"
       y="-52.045876"
       x="-28.944889"
       height="11.744348"
       width="11.833563"
       id="rect3013-8-6-4-6"
       style="fill:#000000;fill-opacity:1;stroke:#000000;stroke-width:0.06615168;stroke-miterlimit:4;stroke-opacity:1;stroke-dasharray:none" />
    <rect
       ry="2.4076087"
       transform="matrix(-0.66289215,0.7487149,-0.7487149,-0.66289215,0,0)"
       y="-49.254429"
       x="20.311279"
       height="11.744348"
       width="11.833563"
       id="rect3013-8-6-4-6-5"
       style="fill:#000000;fill-opacity:1;stroke:#000000;stroke-width:0.06615168;stroke-miterlimit:4;stroke-opacity:1;stroke-dasharray:none" />
    <rect
       ry="2.4076087"
       transform="matrix(-0.99999983,-5.8462209e-4,5.8462209e-4,-0.99999983,0,0)"
       y="-36.83152"
       x="-14.266839"
       height="11.744348"
       width="11.833563"
       id="rect3013-8-6-4-6-5-3"
       style="fill:#000000;fill-opacity:1;stroke:#000000;stroke-width:0.06615168;stroke-miterlimit:4;stroke-opacity:1;stroke-dasharray:none" />
    <rect
       ry="2.4076087"
       transform="matrix(5.8462209e-4,-0.99999983,0.99999983,5.8462209e-4,0,0)"
       y="26.313295"
       x="-12.209292"
       height="11.744348"
       width="11.833563"
       id="rect3013-8-6-4-6-5-3-1"
       style="fill:#000000;fill-opacity:1;stroke:#000000;stroke-width:0.06615168;stroke-miterlimit:4;stroke-opacity:1;stroke-dasharray:none" />
    <rect
       ry="2.4076087"
       transform="matrix(5.8462209e-4,-0.99999983,0.99999983,5.8462209e-4,0,0)"
       y="26.747215"
       x="-60.992424"
       height="11.744348"
       width="11.833563"
       id="rect3013-8-6-4-6-5-3-1-0"
       style="fill:#000000;fill-opacity:1;stroke:#000000;stroke-width:0.06615168;stroke-miterlimit:4;stroke-opacity:1;stroke-dasharray:none" />
    <rect
       ry="2.4076087"
       transform="matrix(-0.99999983,-5.8462209e-4,5.8462209e-4,-0.99999983,0,0)"
       y="-36.609394"
       x="-62.981194"
       height="11.744348"
       width="11.833563"
       id="rect3013-8-6-4-6-5-3-5"
       style="fill:#000000;fill-opacity:1;stroke:#000000;stroke-width:0.06615168;stroke-miterlimit:4;stroke-opacity:1;stroke-dasharray:none" />
  </g>
</svg>
